HIERARCHY
ROOT SpineBase
{
  OFFSET 0.000000 0.000000 0.000000
  CHANNELS 6 Xposition Yposition Zposition Zrotation Xrotation Yrotation
  JOINT SpineMid
  {
    OFFSET 0.000000 27.512610 0.000000
    CHANNELS 3 Zrotation Xrotation Yrotation
    JOINT SpineShoulder
    {
      OFFSET -0.010618 20.392335 -0.613916
      CHANNELS 3 Zrotation Xrotation Yrotation
      JOINT Neck
      {
        OFFSET 0.031773 6.759778 -0.527527
        CHANNELS 3 Zrotation Xrotation Yrotation
        JOINT Head
        {
          OFFSET -4.867169 12.976264 -1.446162
          CHANNELS 3 Zrotation Xrotation Yrotation
          End Site
          {
            OFFSET 0 0 0
          }
        }
      }
      JOINT ShoulderLeft
      {
        OFFSET -14.706053 -6.286884 5.950796
        CHANNELS 3 Zrotation Xrotation Yrotation
        JOINT ElbowLeft
        {
          OFFSET -0.287642 -26.884368 -1.419345
          CHANNELS 3 Zrotation Xrotation Yrotation
          JOINT WristLeft
          {
            OFFSET 3.091665 -20.322891 -9.036090
            CHANNELS 3 Zrotation Xrotation Yrotation
            JOINT HandLeft
            {
              OFFSET 0.710658 -1.372207 0.856928
              CHANNELS 3 Zrotation Xrotation Yrotation
              JOINT HandTipLeft
              {
                OFFSET 0.315216 -6.364900 -0.038618
                CHANNELS 3 Zrotation Xrotation Yrotation
                End Site
                {
                  OFFSET 0 0 0
                }
              }
              JOINT ThumbLeft
              {
                OFFSET 4.111546 1.148933 -3.069746
                CHANNELS 3 Zrotation Xrotation Yrotation
                End Site
                {
                  OFFSET 0 0 0
                }
              }
            }
          }
        }
      }
      JOINT ShoulderRight
      {
        OFFSET 13.648358 -3.111344 -9.346030
        CHANNELS 3 Zrotation Xrotation Yrotation
        JOINT ElbowRight
        {
          OFFSET 6.580360 -23.900611 -0.573754
          CHANNELS 3 Zrotation Xrotation Yrotation
          JOINT WristRight
          {
            OFFSET -1.519747 -21.753407 -3.724882
            CHANNELS 3 Zrotation Xrotation Yrotation
            JOINT HandRight
            {
              OFFSET -1.813879 -3.457607 0.255916
              CHANNELS 3 Zrotation Xrotation Yrotation
              JOINT HandTipRight
              {
                OFFSET 0.143872 -7.234685 -0.798981
                CHANNELS 3 Zrotation Xrotation Yrotation
                End Site
                {
                  OFFSET 0 0 0
                }
              }
              JOINT ThumbRight
              {
                OFFSET -3.570561 1.349822 -0.788671
                CHANNELS 3 Zrotation Xrotation Yrotation
                End Site
                {
                  OFFSET 0 0 0
                }
              }
            }
          }
        }
      }
    }
  }
  JOINT HipLeft
  {
    OFFSET -6.057422 -0.153285 -0.361033
    CHANNELS 3 Zrotation Xrotation Yrotation
    JOINT KneeLeft
    {
      OFFSET 5.585021 -32.358162 6.862270
      CHANNELS 3 Zrotation Xrotation Yrotation
      JOINT AnkleLeft
      {
        OFFSET 6.831778 -32.200814 7.865037
        CHANNELS 3 Zrotation Xrotation Yrotation
        JOINT FootLeft
        {
          OFFSET 2.928888 -7.090897 -8.665386
          CHANNELS 3 Zrotation Xrotation Yrotation
          End Site
          {
            OFFSET 0 0 0
          }
        }
      }
    }
  }
  JOINT HipRight
  {
    OFFSET 6.651913 1.498597 -6.232469
    CHANNELS 3 Zrotation Xrotation Yrotation
    JOINT KneeRight
    {
      OFFSET 7.543500 -30.785905 4.050429
      CHANNELS 3 Zrotation Xrotation Yrotation
      JOINT AnkleRight
      {
        OFFSET 5.127290 -34.222941 7.406711
        CHANNELS 3 Zrotation Xrotation Yrotation
        JOINT FootRight
        {
          OFFSET -6.475885 -6.514959 -1.056151
          CHANNELS 3 Zrotation Xrotation Yrotation
          End Site
          {
            OFFSET 0 0 0
          }
        }
      }
    }
  }
}
MOTION
Frames: 10
Frame Time: 0.033333
-1.117171 61.568557 363.396278 29.801043 -36.893284 -12.565891 0.077438 -0.968509 23.803648 -1.249803 1.414290 1.471105 41.241820 -5.317811 -19.730448 0.000000 0.000000 0.000000 -110.671021 50.107000 73.248284 44.715955 -49.868018 15.788760 -108.951773 60.122070 -175.232377 -55.404578 -40.903508 -97.269186 0.000000 0.000000 0.000000 0.000000 0.000000 0.000000 -47.738493 42.579937 23.777476 -2.838161 -16.560441 -2.162879 19.471588 13.653303 -8.335252 -11.652295 4.657360 4.370703 0.000000 0.000000 0.000000 0.000000 0.000000 0.000000 -53.776690 12.184516 31.536527 -132.955802 26.882588 114.889948 -157.703234 -6.659519 83.873245 0.000000 0.000000 0.000000 -64.419813 38.719069 49.386468 -99.624092 -2.584637 -76.662917 169.209713 -22.521355 -123.657125 0.000000 0.000000 0.000000
-1.108683 60.126811 361.570284 27.599254 -35.102672 -29.838346 0.027038 -0.770330 39.726517 -1.068687 0.985025 1.406949 42.688598 -6.735306 -18.337401 0.000000 0.000000 0.000000 -98.990825 51.462655 63.485869 36.147685 -42.943397 11.358325 -97.772573 65.747004 171.579886 -163.578195 -49.812513 -164.775246 0.000000 0.000000 0.000000 0.000000 0.000000 0.000000 -43.579298 40.279899 20.409394 -1.764678 -16.700909 -1.647589 16.710934 14.895676 -7.974461 -22.518828 5.087383 5.625854 0.000000 0.000000 0.000000 0.000000 0.000000 0.000000 -50.064276 -3.079791 39.571784 -141.633693 13.760419 121.703606 -160.639532 -2.368872 97.348909 0.000000 0.000000 0.000000 -65.022268 23.332249 55.679959 -163.112154 -9.094777 169.340331 139.144766 21.244009 149.532138 0.000000 0.000000 0.000000
-0.692570 59.227211 359.384912 26.534556 -32.891239 -42.088860 -0.000589 -0.840285 51.058292 -1.492348 0.869693 1.463027 43.926116 -8.251209 -16.581348 0.000000 0.000000 0.000000 -91.144105 51.402175 56.414288 35.620990 -41.350811 10.419042 -99.604443 60.904204 158.997621 175.606562 -12.393521 -171.030325 0.000000 0.000000 0.000000 0.000000 0.000000 0.000000 -42.064982 37.287611 18.589500 2.210285 -16.362275 -1.134000 15.162522 15.406572 -7.545100 -38.025186 4.965704 6.875003 0.000000 0.000000 0.000000 0.000000 0.000000 0.000000 -45.012521 -14.737237 45.918986 -144.870418 1.830137 137.950986 -165.280473 2.692795 116.872479 0.000000 0.000000 0.000000 -63.674192 12.460746 59.644968 -165.274542 -10.369736 166.417428 148.548680 27.314513 156.558964 0.000000 0.000000 0.000000
-0.845778 59.560814 358.360522 26.077178 -33.091656 -53.786533 -0.675089 -0.331575 62.433890 -0.845036 0.712088 1.313461 43.695572 -8.602950 -15.967276 0.000000 0.000000 0.000000 -93.229726 51.659397 57.721458 39.060417 -44.229057 11.915585 -102.768813 56.249209 142.437310 169.809896 -5.161899 167.626411 0.000000 0.000000 0.000000 0.000000 0.000000 0.000000 -39.834157 36.925990 16.781330 2.676387 -17.265416 -1.053538 13.999285 17.055440 -7.673774 -44.478330 4.316738 7.136309 0.000000 0.000000 0.000000 0.000000 0.000000 0.000000 -40.433420 -23.497144 54.966385 -139.329530 1.012244 179.538670 -161.186109 10.673438 163.680379 0.000000 0.000000 0.000000 -63.671020 2.080284 64.868793 -170.978235 -10.292296 155.364221 152.847488 34.747484 150.292022 0.000000 0.000000 0.000000
-1.290738 59.824175 358.072805 25.298391 -33.741479 -61.020613 -0.826797 -0.412235 69.546783 -0.111530 1.092387 1.036387 43.771521 -8.641558 -15.963006 0.000000 0.000000 0.000000 -97.010074 51.945291 61.121964 44.641957 -46.717769 14.704158 -89.505510 60.630985 115.673542 158.480434 16.126511 149.586063 0.000000 0.000000 0.000000 0.000000 0.000000 0.000000 -40.173941 36.769698 16.983926 4.294268 -17.187923 -0.973646 13.707099 18.569396 -8.433387 -39.650196 -3.230936 4.232170 0.000000 0.000000 0.000000 0.000000 0.000000 0.000000 -36.776887 -26.668840 61.798900 -139.346041 12.549333 -134.583832 -165.983979 19.330286 -142.890378 0.000000 0.000000 0.000000 -63.843471 -4.211303 68.427995 -177.449060 -9.000936 141.606682 160.204039 40.509916 135.906958 0.000000 0.000000 0.000000
-1.775146 60.080899 357.751522 24.456785 -34.427781 -62.908881 -1.279253 -0.088357 71.156409 0.278881 1.233034 0.891330 43.996523 -8.750028 -15.898977 0.000000 0.000000 0.000000 -109.230789 50.209942 71.216524 62.466176 -54.038679 25.542302 -106.942209 51.904707 119.903015 86.806632 -14.175458 54.389193 0.000000 0.000000 0.000000 0.000000 0.000000 0.000000 -42.377853 35.819416 18.165370 6.330946 -15.439354 -0.799302 14.194024 20.151129 -10.023609 -19.346780 -7.006492 4.688296 0.000000 0.000000 0.000000 0.000000 0.000000 0.000000 -35.950022 -26.142590 63.897491 -144.749128 20.859519 -116.101968 -175.235448 22.931050 -117.064370 0.000000 0.000000 0.000000 -63.988772 -7.006244 69.047704 175.613546 -6.376976 123.607205 167.951992 49.668529 117.063269 0.000000 0.000000 0.000000
-2.247407 60.252369 357.604132 23.764466 -34.937621 -57.511075 -1.402888 0.638322 65.435897 0.450561 1.270664 0.837504 43.963016 -8.734185 -15.917166 0.000000 0.000000 0.000000 -114.112674 51.977914 76.640612 75.759167 -60.042983 36.406461 -107.458823 50.827480 112.252750 65.661625 -45.187704 31.578392 0.000000 0.000000 0.000000 0.000000 0.000000 0.000000 -46.771563 36.915323 21.601832 7.621441 -15.349272 -1.373026 17.000349 17.960721 -10.189048 -13.386014 -5.118395 5.151223 0.000000 0.000000 0.000000 0.000000 0.000000 0.000000 -38.580782 -20.093840 59.712343 -156.073185 30.743088 -94.381459 178.140302 16.834179 -90.966971 0.000000 0.000000 0.000000 -63.625136 -4.501638 65.761697 168.303799 -1.424351 100.800278 -173.767067 56.644644 83.282103 0.000000 0.000000 0.000000
-3.027025 60.322511 358.836091 23.489062 -35.961046 -52.916994 -1.552534 1.103908 60.856174 0.502881 1.219065 0.828811 44.002525 -8.367167 -16.504286 0.000000 0.000000 0.000000 -128.088065 53.821360 91.821686 106.027638 -66.407650 66.357440 -122.978628 39.730225 123.201312 85.233745 -63.360433 50.628059 0.000000 0.000000 0.000000 0.000000 0.000000 0.000000 -54.285271 40.994210 29.081682 10.292617 -19.413481 -2.861667 18.208494 15.975292 -9.805066 -11.899886 -7.261297 4.907002 0.000000 0.000000 0.000000 0.000000 0.000000 0.000000 -40.899072 -14.265919 56.893583 -164.218839 38.185031 -91.466063 178.452013 13.589176 -86.088730 0.000000 0.000000 0.000000 -64.355266 -3.131513 62.906707 151.768357 22.497410 44.818171 -122.836335 35.534209 -0.953603 0.000000 0.000000 0.000000
-3.742608 60.120681 359.807116 22.831889 -36.746788 -49.039103 -1.559044 1.462181 56.836912 0.556699 1.177091 0.803961 44.371287 -8.146563 -17.015589 0.000000 0.000000 0.000000 -135.116458 55.817118 100.911476 129.416734 -66.235747 90.069405 -130.980781 31.177442 133.726536 119.694919 -71.641619 84.529540 0.000000 0.000000 0.000000 0.000000 0.000000 0.000000 -64.111293 43.547403 38.556570 14.631290 -24.030106 -3.892053 18.861377 14.432665 -9.451392 -13.298775 -8.716807 4.670718 0.000000 0.000000 0.000000 0.000000 0.000000 0.000000 -41.744916 -8.457480 54.853382 -162.699531 42.258020 -108.539220 172.286276 20.659005 -102.629351 0.000000 0.000000 0.000000 -64.705613 -1.757455 60.586059 146.985975 36.749160 15.389366 -117.253898 13.686483 -24.655131 0.000000 0.000000 0.000000
-4.379210 60.203187 359.939652 23.201083 -38.537050 -48.469039 -1.613043 1.267601 56.867015 0.381854 1.058142 0.865444 44.582585 -7.138182 -18.732684 0.000000 0.000000 0.000000 -139.349381 56.805286 107.262972 146.284076 -62.880803 105.507899 -136.116469 36.397226 170.722216 -99.838030 -61.733030 -126.465078 0.000000 0.000000 0.000000 0.000000 0.000000 0.000000 -76.122009 44.465532 50.261485 20.176607 -29.653995 -4.107427 18.887561 14.217165 -9.303423 -19.265813 -11.687550 3.754175 0.000000 0.000000 0.000000 0.000000 0.000000 0.000000 -43.741739 -5.055569 55.930636 -155.490818 43.625051 -137.820464 -177.597676 29.671760 -134.193056 0.000000 0.000000 0.000000 -66.434432 -3.462966 60.241617 142.758108 44.109022 0.816049 -116.100490 1.632255 -34.853866 0.000000 0.000000 0.000000
